Tom Petty And The Heartbreakers Runing Down A Dream Mp4 720p AAC Multichannel

Runnin' Down A Dream, the feature length documentary about Tom Petty And The Heartbreakers, directed by Oscar-winning filmmaker Peter Bogdanovich (The Last Picture Show, Paper Moon, Mask. Gritty and exuberant, Runnin' Down A Dream tells the Heartbreakers' story as never before, revealing the combination of unwavering talent, artistic vision and sheer persistence that has made them one of the great American rock bands. Featuring clips from 145 songs and documenting over 30 years of rock history, the film sources dozens of interviews and more than 500 hours of archival material (including rare footage) tracking the band from its Gainesville beginnings to its 30th anniversary Gainesville concert in 2006.

General 
Tom Petty And The Heartbreakers Runing Down A Dream Mp4 720p AAC Multichannel 
Format : MPEG-4 
Format profile : Base Media 
Codec ID : isom 
File size : 5.02 GiB 
Duration : 3h 58mn 
Overall bit rate mode : Variable 
Overall bit rate : 3 017 Kbps 
Encoded date : UTC 2013-01-05 19:02:07 
Tagged date : UTC 2013-01-05 19:02:07 

Video 
ID : 1 
Format : AVC 
Format/Info : Advanced Video Codec 
Format profile : High@L4.0 
Format settings, CABAC : Yes 
Format settings, ReFrames : 3 frames 
Codec ID : avc1 
Codec ID/Info : Advanced Video Coding 
Duration : 3h 58mn 
Bit rate mode : Variable 
Bit rate : 2 693 Kbps 
Maximum bit rate : 25.0 Mbps 
Width : 1 280 pixels 
Height : 720 pixels 
Display aspect ratio : 16:9 
Frame rate mode : Constant 
Frame rate : 29.970 fps 
Color space : YUV 
Chroma subsampling : 4:2:0 
Bit depth : 8 bits 
Scan type : Progressive 
Bits/(Pixel*Frame) : 0.098 
Stream size : 4.48 GiB (89%) 
Writing library : x264 core 125 r2208 d9d2288 
Encoding settings : cabac=1 / ref=3 / deblock=1:0:0 / analyse=0x3:0x113 / me=hex / subme=7 / psy=1 / psy_rd=1.00:0.00 / mixed_ref=1 / me_range=16 / chroma_me=1 / trellis=1 / 8x8dct=1 / cqm=0 / deadzone=21,11 / fast_pskip=1 / chroma_qp_offset=-2 / threads=12 / lookahead_threads=2 / sliced_threads=0 / nr=0 / decimate=1 / interlaced=0 / bluray_compat=0 / constrained_intra=0 / bframes=3 / b_pyramid=0 / b_adapt=1 / b_bias=0 / direct=1 / weightb=1 / open_gop=0 / weightp=2 / keyint=300 / keyint_min=30 / scenecut=40 / intra_refresh=0 / rc_lookahead=40 / rc=crf / mbtree=1 / crf=24.0 / qcomp=0.60 / qpmin=0 / qpmax=69 / qpstep=4 / vbv_maxrate=25000 / vbv_bufsize=25000 / crf_max=0.0 / nal_hrd=vbr / ip_ratio=1.40 / aq=1:1.00 
Encoded date : UTC 2013-01-05 19:02:07 
Tagged date : UTC 2013-01-05 19:04:07 

Audio 
ID : 2 
Format : AAC 
Format/Info : Advanced Audio Codec 
Format profile : LC 
Codec ID : 40 
Duration : 3h 58mn 
Bit rate mode : Variable 
Bit rate : 320 Kbps 
Maximum bit rate : 334 Kbps 
Channel(s) : 6 channels 
Channel positions : Front: L C R, Side: L R, LFE 
Sampling rate : 48.0 KHz 
Compression mode : Lossy 
Stream size : 545 MiB (11%) 
Title : xé© 
Language : English 
Encoded date : UTC 2013-01-05 19:03:37 
Tagged date : UTC 2013-01-05 19:04:07 
